<svg xmlns="http://www.w3.org/2000/svg" width="20" height="20" viewBox="0 0 20 20"><g transform="translate(-2 -2)"><path d="M6.6,2H17.4A4.605,4.605,0,0,1,22,6.6V17.4A4.605,4.605,0,0,1,17.4,22H6.6A4.605,4.605,0,0,1,2,17.4V6.6A4.605,4.605,0,0,1,6.6,2ZM17.4,20A2.6,2.6,0,0,0,20,17.4V6.6A2.6,2.6,0,0,0,17.4,4H6.6A2.6,2.6,0,0,0,4,6.6V17.4A2.6,2.6,0,0,0,6.6,20Z" transform="translate(0 0)" fill="#0284c7"/><path d="M10.316,9.552a.612.612,0,0,1-.658.552A.612.612,0,0,1,9,9.552.612.612,0,0,1,9.658,9,.612.612,0,0,1,10.316,9.552Z" transform="translate(-2.2 -0.2)" fill="#0284c7"/><path d="M9.658,8a1.61,1.61,0,0,1,1.658,1.552A1.61,1.61,0,0,1,9.658,11.1,1.61,1.61,0,0,1,8,9.552,1.61,1.61,0,0,1,9.658,8Z" transform="translate(-2.2 -0.2)" fill="#0284c7"/><path d="M19,16.95h.006a2.992,2.992,0,0,1,2.217.989l4.055,4.495A2.23,2.23,0,0,1,26,24.081v.135a4.9,4.9,0,0,1-4.867,4.93H9a1,1,0,0,1-.745-1.667l8.526-9.531A2.992,2.992,0,0,1,19,16.95Zm5,7.064a2.93,2.93,0,0,0-.206-.243l-.025-.028-4.029-4.465a.989.989,0,0,0-.732-.329v-1l0,1a.989.989,0,0,0-.733.332l-7.035,7.865h9.9A2.9,2.9,0,0,0,24,24.216v-.135A.5.5,0,0,0,24,24.014Z" transform="translate(-4 -7.146)" fill="#0284c7"/></g></svg>