<svg xmlns="http://www.w3.org/2000/svg" width="16" height="16" viewBox="0 0 16 16"><g transform="translate(-3.5 -3.649)"><path d="M4.5,19.649a1,1,0,0,1-.981-1.2l.615-3.074a2.556,2.556,0,0,1,.7-1.31L14.406,4.5l.016-.015a3,3,0,0,1,4.245,4.244l-.016.016L9.079,18.314a2.556,2.556,0,0,1-1.31.7L4.7,19.63A1,1,0,0,1,4.5,19.649ZM15.811,5.921,6.25,15.483a.562.562,0,0,0-.154.288l-.321,1.6,1.6-.32a.562.562,0,0,0,.288-.154l9.563-9.562a1.008,1.008,0,0,0-.022-1.395,1,1,0,0,0-1.395-.022Z" fill="#0284c7"/><path d="M23.617,13.031l-2.574-2.574,1.414-1.414,2.574,2.574Z" transform="translate(-8.432 -2.493)" fill="#0284c7"/></g></svg>