<svg xmlns="http://www.w3.org/2000/svg" width="11.767" height="13.182" viewBox="0 0 11.767 13.182"><g transform="translate(-3.898 -2)"><path d="M13.3,2A3.8,3.8,0,1,1,9.5,5.8,3.8,3.8,0,0,1,13.3,2Zm0,5.591a1.8,1.8,0,1,0-1.8-1.8A1.8,1.8,0,0,0,13.3,7.591Z" transform="translate(-3.514)" fill="#89c601"/><path d="M13.547,26.473H6.017a2.118,2.118,0,0,1-2.1-2.381l.218-1.747A2.681,2.681,0,0,1,6.789,20h.2a1,1,0,0,1,0,2h-.2a.678.678,0,0,0-.672.593L5.9,24.34a.118.118,0,0,0,.118.133h7.53a.118.118,0,0,0,.118-.133l-.219-1.746A.678.678,0,0,0,12.774,22h-.2a1,1,0,0,1,0-2h.2a2.682,2.682,0,0,1,2.656,2.345l.219,1.746a2.118,2.118,0,0,1-2.1,2.381Z" transform="translate(0 -11.291)" fill="#89c601"/></g></svg>