<svg xmlns="http://www.w3.org/2000/svg" width="30" height="30" viewBox="0 0 30 30"><g transform="translate(-2.5 -2)"><path d="M31,17A14,14,0,1,1,17,3,14,14,0,0,1,31,17Z" transform="translate(0.5 0)" fill="#cdcdcd"/><path d="M17,2A15,15,0,0,1,27.607,27.607,15,15,0,1,1,6.393,6.393,14.9,14.9,0,0,1,17,2Zm0,28A13,13,0,0,0,26.192,7.808,13,13,0,0,0,7.808,26.192,12.915,12.915,0,0,0,17,30Z" transform="translate(0.5 0)" fill="#fff"/><path d="M24,21a6.25,6.25,0,0,1-12,0" transform="translate(-0.5 -1.412)" fill="#cdcdcd"/><path d="M18,26.5a7.005,7.005,0,0,1-4.61-1.645,7.944,7.944,0,0,1-2.339-3.539,1,1,0,1,1,1.9-.632,5.946,5.946,0,0,0,1.737,2.648A4.965,4.965,0,0,0,18,24.5a4.965,4.965,0,0,0,3.314-1.168,5.946,5.946,0,0,0,1.737-2.648,1,1,0,1,1,1.9.632,7.944,7.944,0,0,1-2.339,3.539A7.005,7.005,0,0,1,18,26.5Z" transform="translate(-0.5 -1.412)" fill="#fff"/><circle cx="1.5" cy="1.5" r="1.5" transform="translate(11 12)" fill="#fff"/><circle cx="1.5" cy="1.5" r="1.5" transform="translate(21 12)" fill="#fff"/></g></svg>