<svg xmlns="http://www.w3.org/2000/svg" width="69.764" height="20.346" viewBox="0 0 69.764 20.346"><path d="M-18.98-15.469v-3.375h1.617v3.375Zm-16.1,1.758v-3.75h13.57v-1.383h1.617v3.375h-.82v1.453a16,16,0,0,1-1.078,5.93A14.39,14.39,0,0,1-24.253-4a11.783,11.783,0,0,1-3.023,2.5A16.641,16.641,0,0,1-30.3-.152a15.031,15.031,0,0,1-2.332.586,6.467,6.467,0,0,1-.926.105v-3.75A15.746,15.746,0,0,0-30.3-4.02,9.727,9.727,0,0,0-27.546-5.7a8.44,8.44,0,0,0,2.238-3.082,13.416,13.416,0,0,0,.984-4.934Zm27.216-4.8q-.094.656-.234,1.266t-.281,1.172H-.67v3.586A15.949,15.949,0,0,1-2.006-7.113,13.036,13.036,0,0,1-4.6-3.281,15.281,15.281,0,0,1-7.69-.867,22.224,22.224,0,0,1-10.643.586a16.606,16.606,0,0,1-2.238.738,5.772,5.772,0,0,1-.891.176V-2.3a6.168,6.168,0,0,0,.926-.223A13.5,13.5,0,0,0-10.631-3.4,11.925,11.925,0,0,0-7.889-5.32,10.527,10.527,0,0,0-5.58-8.3,12.442,12.442,0,0,0-4.4-12.586H-9.811a21.587,21.587,0,0,1-2.648,3.422A17.4,17.4,0,0,1-14.6-7.242a4.975,4.975,0,0,1-.9.586V-11.18a6.079,6.079,0,0,0,.527-.434,7.359,7.359,0,0,0,1.16-1.395,16.452,16.452,0,0,0,1.277-2.285,13.352,13.352,0,0,0,.973-3.223ZM18.952-13.43a21.3,21.3,0,0,1-3.141,6.984,17.566,17.566,0,0,1-4.09,4.16A15.561,15.561,0,0,1,7.7-.211,14.926,14.926,0,0,1,4.6.5a11.706,11.706,0,0,1-1.23.082v-3.82a7.369,7.369,0,0,0,.961-.035,11.732,11.732,0,0,0,2.4-.48A9.891,9.891,0,0,0,9.811-5.367,14.517,14.517,0,0,0,12.8-8.4a17.839,17.839,0,0,0,2.426-5.027ZM3.366-13.969v-3.68h6.867v3.68Zm0,5.7v-3.68h6.867v3.68Zm18.872-3.117v-3.117H34.683V.281H22.237V-2.836h9.234V-5.719H22.73V-8.625h8.742v-2.766Z" transform="translate(35.081 18.844)" fill="#fff"/></svg>